<svg width="900" height="1125" viewBox="0 0 900 1125" fill="none" xmlns="http://www.w3.org/2000/svg">
  <rect width="900" height="1125" fill="#E8E0D4"/>
  <path d="M0 820C178 744 254 616 348 428C441 240 605 144 900 180V1125H0V820Z" fill="#1B1D1B"/>
  <path d="M684 196C740 258 756 359 708 441C654 534 538 565 449 512C360 459 331 343 385 251C438 158 553 127 642 180C657 189 671 194 684 196Z" fill="#C35D50"/>
  <path d="M341 564C405 505 490 486 573 510C666 537 733 617 746 712C760 807 718 901 640 956C556 1015 443 1017 357 960C271 902 230 797 255 697C268 644 296 599 341 564Z" fill="#F5F2EC"/>
  <path d="M283 978C318 873 385 808 485 782C583 757 679 782 772 857V1125H206C219 1070 245 1021 283 978Z" fill="#B85B4F"/>
  <path d="M315 541C350 500 393 474 444 464C505 452 557 466 601 506C547 546 491 562 433 555C390 550 351 545 315 541Z" fill="#111413"/>
  <circle cx="585" cy="351" r="12" fill="#111413"/>
  <circle cx="470" cy="361" r="12" fill="#111413"/>
  <path d="M501 424C536 442 572 439 609 416" stroke="#111413" stroke-width="12" stroke-linecap="round"/>
  <path d="M130 162L214 109L233 207L130 162Z" fill="#206F79"/>
  <path d="M705 666L821 628L795 754L705 666Z" fill="#D7AA69"/>
  <path d="M87 988C169 952 234 968 281 1036" stroke="#206F79" stroke-width="20" stroke-linecap="round"/>
</svg>
